<svg xmlns="http://www.w3.org/2000/svg" width="512" height="512" viewBox="0 0 512 512" role="img" aria-label="GhostBus">
  <defs>
    <radialGradient id="glow-mask" cx="50%" cy="42%" r="62%">
      <stop offset="0%" stop-color="#1A1030"/>
      <stop offset="100%" stop-color="#0B0E1A"/>
    </radialGradient>
  </defs>
  <rect width="512" height="512" fill="#0B0E1A"/>
  <rect width="512" height="512" fill="url(#glow-mask)"/>
  <rect x="203.79" y="108.08" width="19.35" height="19.35" rx="1.28" fill="#c07ce6"/>
  <rect x="225.06" y="108.08" width="19.35" height="19.35" rx="1.28" fill="#c07ce6"/>
  <rect x="246.32" y="108.08" width="19.35" height="19.35" rx="1.28" fill="#c07ce6"/>
  <rect x="267.59" y="108.08" width="19.35" height="19.35" rx="1.28" fill="#c07ce6"/>
  <rect x="288.86" y="108.08" width="19.35" height="19.35" rx="1.28" fill="#c07ce6"/>
  <rect x="161.25" y="129.35" width="19.35" height="19.35" rx="1.28" fill="#c07ce6"/>
  <rect x="182.52" y="129.35" width="19.35" height="19.35" rx="1.28" fill="#c07ce6"/>
  <rect x="203.79" y="129.35" width="19.35" height="19.35" rx="1.28" fill="#c07ce6"/>
  <rect x="225.06" y="129.35" width="19.35" height="19.35" rx="1.28" fill="#c07ce6"/>
  <rect x="246.32" y="129.35" width="19.35" height="19.35" rx="1.28" fill="#c07ce6"/>
  <rect x="267.59" y="129.35" width="19.35" height="19.35" rx="1.28" fill="#c07ce6"/>
  <rect x="288.86" y="129.35" width="19.35" height="19.35" rx="1.28" fill="#c07ce6"/>
  <rect x="310.13" y="129.35" width="19.35" height="19.35" rx="1.28" fill="#c07ce6"/>
  <rect x="331.39" y="129.35" width="19.35" height="19.35" rx="1.28" fill="#c07ce6"/>
  <rect x="139.98" y="150.62" width="19.35" height="19.35" rx="1.28" fill="#c07ce6"/>
  <rect x="161.25" y="150.62" width="19.35" height="19.35" rx="1.28" fill="#c07ce6"/>
  <rect x="182.52" y="150.62" width="19.35" height="19.35" rx="1.28" fill="#c07ce6"/>
  <rect x="203.79" y="150.62" width="19.35" height="19.35" rx="1.28" fill="#c07ce6"/>
  <rect x="225.06" y="150.62" width="19.35" height="19.35" rx="1.28" fill="#c07ce6"/>
  <rect x="246.32" y="150.62" width="19.35" height="19.35" rx="1.28" fill="#c07ce6"/>
  <rect x="267.59" y="150.62" width="19.35" height="19.35" rx="1.28" fill="#c07ce6"/>
  <rect x="288.86" y="150.62" width="19.35" height="19.35" rx="1.28" fill="#c07ce6"/>
  <rect x="310.13" y="150.62" width="19.35" height="19.35" rx="1.28" fill="#c07ce6"/>
  <rect x="331.39" y="150.62" width="19.35" height="19.35" rx="1.28" fill="#c07ce6"/>
  <rect x="352.66" y="150.62" width="19.35" height="19.35" rx="1.28" fill="#c07ce6"/>
  <rect x="118.72" y="171.89" width="19.35" height="19.35" rx="1.28" fill="#c07ce6"/>
  <rect x="139.98" y="171.89" width="19.35" height="19.35" rx="1.28" fill="#c07ce6"/>
  <rect x="161.25" y="171.89" width="19.35" height="19.35" rx="1.28" fill="#c07ce6"/>
  <rect x="182.52" y="171.89" width="19.35" height="19.35" rx="1.28" fill="#c07ce6"/>
  <rect x="203.79" y="171.89" width="19.35" height="19.35" rx="1.28" fill="#c07ce6"/>
  <rect x="225.06" y="171.89" width="19.35" height="19.35" rx="1.28" fill="#c07ce6"/>
  <rect x="246.32" y="171.89" width="19.35" height="19.35" rx="1.28" fill="#c07ce6"/>
  <rect x="267.59" y="171.89" width="19.35" height="19.35" rx="1.28" fill="#c07ce6"/>
  <rect x="288.86" y="171.89" width="19.35" height="19.35" rx="1.28" fill="#c07ce6"/>
  <rect x="310.13" y="171.89" width="19.35" height="19.35" rx="1.28" fill="#c07ce6"/>
  <rect x="331.39" y="171.89" width="19.35" height="19.35" rx="1.28" fill="#c07ce6"/>
  <rect x="352.66" y="171.89" width="19.35" height="19.35" rx="1.28" fill="#c07ce6"/>
  <rect x="373.93" y="171.89" width="19.35" height="19.35" rx="1.28" fill="#c07ce6"/>
  <rect x="118.72" y="193.15" width="19.35" height="19.35" rx="1.28" fill="#a862d0"/>
  <rect x="139.98" y="193.15" width="19.35" height="19.35" rx="1.28" fill="#a862d0"/>
  <rect x="225.06" y="193.15" width="19.35" height="19.35" rx="1.28" fill="#a862d0"/>
  <rect x="246.32" y="193.15" width="19.35" height="19.35" rx="1.28" fill="#a862d0"/>
  <rect x="267.59" y="193.15" width="19.35" height="19.35" rx="1.28" fill="#a862d0"/>
  <rect x="352.66" y="193.15" width="19.35" height="19.35" rx="1.28" fill="#a862d0"/>
  <rect x="373.93" y="193.15" width="19.35" height="19.35" rx="1.28" fill="#a862d0"/>
  <rect x="118.72" y="214.42" width="19.35" height="19.35" rx="1.28" fill="#a862d0"/>
  <rect x="139.98" y="214.42" width="19.35" height="19.35" rx="1.28" fill="#a862d0"/>
  <rect x="225.06" y="214.42" width="19.35" height="19.35" rx="1.28" fill="#a862d0"/>
  <rect x="246.32" y="214.42" width="19.35" height="19.35" rx="1.28" fill="#a862d0"/>
  <rect x="267.59" y="214.42" width="19.35" height="19.35" rx="1.28" fill="#a862d0"/>
  <rect x="352.66" y="214.42" width="19.35" height="19.35" rx="1.28" fill="#a862d0"/>
  <rect x="373.93" y="214.42" width="19.35" height="19.35" rx="1.28" fill="#a862d0"/>
  <rect x="118.72" y="235.69" width="19.35" height="19.35" rx="1.28" fill="#a862d0"/>
  <rect x="139.98" y="235.69" width="19.35" height="19.35" rx="1.28" fill="#a862d0"/>
  <rect x="225.06" y="235.69" width="19.35" height="19.35" rx="1.28" fill="#a862d0"/>
  <rect x="246.32" y="235.69" width="19.35" height="19.35" rx="1.28" fill="#a862d0"/>
  <rect x="267.59" y="235.69" width="19.35" height="19.35" rx="1.28" fill="#a862d0"/>
  <rect x="352.66" y="235.69" width="19.35" height="19.35" rx="1.28" fill="#a862d0"/>
  <rect x="373.93" y="235.69" width="19.35" height="19.35" rx="1.28" fill="#a862d0"/>
  <rect x="118.72" y="256.96" width="19.35" height="19.35" rx="1.28" fill="#a862d0"/>
  <rect x="139.98" y="256.96" width="19.35" height="19.35" rx="1.28" fill="#a862d0"/>
  <rect x="161.25" y="256.96" width="19.35" height="19.35" rx="1.28" fill="#a862d0"/>
  <rect x="182.52" y="256.96" width="19.35" height="19.35" rx="1.28" fill="#a862d0"/>
  <rect x="203.79" y="256.96" width="19.35" height="19.35" rx="1.28" fill="#a862d0"/>
  <rect x="225.06" y="256.96" width="19.35" height="19.35" rx="1.28" fill="#a862d0"/>
  <rect x="246.32" y="256.96" width="19.35" height="19.35" rx="1.28" fill="#a862d0"/>
  <rect x="267.59" y="256.96" width="19.35" height="19.35" rx="1.28" fill="#a862d0"/>
  <rect x="288.86" y="256.96" width="19.35" height="19.35" rx="1.28" fill="#a862d0"/>
  <rect x="310.13" y="256.96" width="19.35" height="19.35" rx="1.28" fill="#a862d0"/>
  <rect x="331.39" y="256.96" width="19.35" height="19.35" rx="1.28" fill="#a862d0"/>
  <rect x="352.66" y="256.96" width="19.35" height="19.35" rx="1.28" fill="#a862d0"/>
  <rect x="373.93" y="256.96" width="19.35" height="19.35" rx="1.28" fill="#a862d0"/>
  <rect x="118.72" y="278.22" width="19.35" height="19.35" rx="1.28" fill="#8944ab"/>
  <rect x="139.98" y="278.22" width="19.35" height="19.35" rx="1.28" fill="#8944ab"/>
  <rect x="161.25" y="278.22" width="19.35" height="19.35" rx="1.28" fill="#8944ab"/>
  <rect x="182.52" y="278.22" width="19.35" height="19.35" rx="1.28" fill="#8944ab"/>
  <rect x="203.79" y="278.22" width="19.35" height="19.35" rx="1.28" fill="#8944ab"/>
  <rect x="225.06" y="278.22" width="19.35" height="19.35" rx="1.28" fill="#8944ab"/>
  <rect x="246.32" y="278.22" width="19.35" height="19.35" rx="1.28" fill="#8944ab"/>
  <rect x="267.59" y="278.22" width="19.35" height="19.35" rx="1.28" fill="#8944ab"/>
  <rect x="288.86" y="278.22" width="19.35" height="19.35" rx="1.28" fill="#8944ab"/>
  <rect x="310.13" y="278.22" width="19.35" height="19.35" rx="1.28" fill="#8944ab"/>
  <rect x="331.39" y="278.22" width="19.35" height="19.35" rx="1.28" fill="#8944ab"/>
  <rect x="352.66" y="278.22" width="19.35" height="19.35" rx="1.28" fill="#8944ab"/>
  <rect x="373.93" y="278.22" width="19.35" height="19.35" rx="1.28" fill="#8944ab"/>
  <rect x="118.72" y="299.49" width="19.35" height="19.35" rx="1.28" fill="#8944ab"/>
  <rect x="139.98" y="299.49" width="19.35" height="19.35" rx="1.28" fill="#8944ab"/>
  <rect x="161.25" y="299.49" width="19.35" height="19.35" rx="1.28" fill="#8944ab"/>
  <rect x="182.52" y="299.49" width="19.35" height="19.35" rx="1.28" fill="#8944ab"/>
  <rect x="203.79" y="299.49" width="19.35" height="19.35" rx="1.28" fill="#8944ab"/>
  <rect x="225.06" y="299.49" width="19.35" height="19.35" rx="1.28" fill="#8944ab"/>
  <rect x="246.32" y="299.49" width="19.35" height="19.35" rx="1.28" fill="#8944ab"/>
  <rect x="267.59" y="299.49" width="19.35" height="19.35" rx="1.28" fill="#8944ab"/>
  <rect x="288.86" y="299.49" width="19.35" height="19.35" rx="1.28" fill="#8944ab"/>
  <rect x="310.13" y="299.49" width="19.35" height="19.35" rx="1.28" fill="#8944ab"/>
  <rect x="331.39" y="299.49" width="19.35" height="19.35" rx="1.28" fill="#8944ab"/>
  <rect x="352.66" y="299.49" width="19.35" height="19.35" rx="1.28" fill="#8944ab"/>
  <rect x="373.93" y="299.49" width="19.35" height="19.35" rx="1.28" fill="#8944ab"/>
  <rect x="118.72" y="320.76" width="19.35" height="19.35" rx="1.28" fill="#8944ab"/>
  <rect x="139.98" y="320.76" width="19.35" height="19.35" rx="1.28" fill="#8944ab"/>
  <rect x="161.25" y="320.76" width="19.35" height="19.35" rx="1.28" fill="#8944ab"/>
  <rect x="182.52" y="320.76" width="19.35" height="19.35" rx="1.28" fill="#8944ab"/>
  <rect x="203.79" y="320.76" width="19.35" height="19.35" rx="1.28" fill="#8944ab"/>
  <rect x="225.06" y="320.76" width="19.35" height="19.35" rx="1.28" fill="#8944ab"/>
  <rect x="246.32" y="320.76" width="19.35" height="19.35" rx="1.28" fill="#8944ab"/>
  <rect x="267.59" y="320.76" width="19.35" height="19.35" rx="1.28" fill="#8944ab"/>
  <rect x="288.86" y="320.76" width="19.35" height="19.35" rx="1.28" fill="#8944ab"/>
  <rect x="310.13" y="320.76" width="19.35" height="19.35" rx="1.28" fill="#8944ab"/>
  <rect x="331.39" y="320.76" width="19.35" height="19.35" rx="1.28" fill="#8944ab"/>
  <rect x="352.66" y="320.76" width="19.35" height="19.35" rx="1.28" fill="#8944ab"/>
  <rect x="373.93" y="320.76" width="19.35" height="19.35" rx="1.28" fill="#8944ab"/>
  <rect x="118.72" y="342.03" width="19.35" height="19.35" rx="1.28" fill="#6f358d"/>
  <rect x="139.98" y="342.03" width="19.35" height="19.35" rx="1.28" fill="#6f358d"/>
  <rect x="161.25" y="342.03" width="19.35" height="19.35" rx="1.28" fill="#6f358d"/>
  <rect x="182.52" y="342.03" width="19.35" height="19.35" rx="1.28" fill="#6f358d"/>
  <rect x="203.79" y="342.03" width="19.35" height="19.35" rx="1.28" fill="#6f358d"/>
  <rect x="225.06" y="342.03" width="19.35" height="19.35" rx="1.28" fill="#6f358d"/>
  <rect x="246.32" y="342.03" width="19.35" height="19.35" rx="1.28" fill="#6f358d"/>
  <rect x="267.59" y="342.03" width="19.35" height="19.35" rx="1.28" fill="#6f358d"/>
  <rect x="288.86" y="342.03" width="19.35" height="19.35" rx="1.28" fill="#6f358d"/>
  <rect x="310.13" y="342.03" width="19.35" height="19.35" rx="1.28" fill="#6f358d"/>
  <rect x="331.39" y="342.03" width="19.35" height="19.35" rx="1.28" fill="#6f358d"/>
  <rect x="352.66" y="342.03" width="19.35" height="19.35" rx="1.28" fill="#6f358d"/>
  <rect x="373.93" y="342.03" width="19.35" height="19.35" rx="1.28" fill="#6f358d"/>
  <rect x="118.72" y="363.30" width="19.35" height="19.35" rx="1.28" fill="#6f358d"/>
  <rect x="139.98" y="363.30" width="19.35" height="19.35" rx="1.28" fill="#6f358d"/>
  <rect x="161.25" y="363.30" width="19.35" height="19.35" rx="1.28" fill="#6f358d"/>
  <rect x="182.52" y="363.30" width="19.35" height="19.35" rx="1.28" fill="#6f358d"/>
  <rect x="203.79" y="363.30" width="19.35" height="19.35" rx="1.28" fill="#6f358d"/>
  <rect x="225.06" y="363.30" width="19.35" height="19.35" rx="1.28" fill="#6f358d"/>
  <rect x="246.32" y="363.30" width="19.35" height="19.35" rx="1.28" fill="#6f358d"/>
  <rect x="267.59" y="363.30" width="19.35" height="19.35" rx="1.28" fill="#6f358d"/>
  <rect x="288.86" y="363.30" width="19.35" height="19.35" rx="1.28" fill="#6f358d"/>
  <rect x="310.13" y="363.30" width="19.35" height="19.35" rx="1.28" fill="#6f358d"/>
  <rect x="331.39" y="363.30" width="19.35" height="19.35" rx="1.28" fill="#6f358d"/>
  <rect x="352.66" y="363.30" width="19.35" height="19.35" rx="1.28" fill="#6f358d"/>
  <rect x="373.93" y="363.30" width="19.35" height="19.35" rx="1.28" fill="#6f358d"/>
  <rect x="118.72" y="384.56" width="19.35" height="19.35" rx="1.28" fill="#6f358d"/>
  <rect x="139.98" y="384.56" width="19.35" height="19.35" rx="1.28" fill="#6f358d"/>
  <rect x="161.25" y="384.56" width="19.35" height="19.35" rx="1.28" fill="#6f358d"/>
  <rect x="225.06" y="384.56" width="19.35" height="19.35" rx="1.28" fill="#6f358d"/>
  <rect x="246.32" y="384.56" width="19.35" height="19.35" rx="1.28" fill="#6f358d"/>
  <rect x="267.59" y="384.56" width="19.35" height="19.35" rx="1.28" fill="#6f358d"/>
  <rect x="331.39" y="384.56" width="19.35" height="19.35" rx="1.28" fill="#6f358d"/>
  <rect x="352.66" y="384.56" width="19.35" height="19.35" rx="1.28" fill="#6f358d"/>
  <rect x="373.93" y="384.56" width="19.35" height="19.35" rx="1.28" fill="#6f358d"/>
</svg>
